<svg xmlns="http://www.w3.org/2000/svg" viewBox="0 0 260 200" fill="none">
  <!-- Novabeautytt botanical flourish: lime line-art vines and lily,
       drawn to match the business card artwork -->
  <g stroke="#BCD25F" stroke-width="2.4" stroke-linecap="round" stroke-linejoin="round">
    <path d="M6 168 C 60 120, 120 150, 168 118 C 200 97, 226 92, 252 100"/>
    <path d="M66 142 C 84 128, 86 112, 74 100 C 60 112, 58 130, 66 142 Z"/>
    <path d="M96 136 C 116 128, 122 112, 112 98 C 96 108, 90 124, 96 136 Z"/>
    <path d="M148 122 C 150 106, 142 94, 128 90 C 126 106, 134 118, 148 122 Z"/>
    <path d="M120 132 C 138 150, 162 152, 180 140"/>
    <path d="M186 112 C 196 100, 212 96, 224 102"/>
    <circle cx="184" cy="140" r="4"/>
    <circle cx="230" cy="104" r="3.4"/>
    <path d="M40 150 C 34 138, 36 126, 46 118"/>
  </g>
  <!-- lily bloom -->
  <g stroke="#BCD25F" stroke-width="2.4" stroke-linecap="round" stroke-linejoin="round">
    <path d="M42 96 C 20 82, 14 56, 30 36 C 44 52, 48 76, 42 96 Z"/>
    <path d="M46 92 C 44 66, 54 44, 76 34 C 78 60, 66 82, 46 92 Z"/>
    <path d="M50 98 C 68 82, 92 78, 112 88 C 96 104, 70 108, 50 98 Z"/>
    <path d="M44 100 C 46 108, 44 118, 38 126"/>
    <path d="M52 102 C 58 110, 60 120, 58 130"/>
  </g>
</svg>
